inDegrees=yes
name=ik_lifting_orientations
DataType=double
version=3
OpenSimVersion=4.5-2024-01-10-34fd6af
endheader
time	pelvis_tilt	pelvis_list	pelvis_rotation	pelvis_tx	pelvis_ty	pelvis_tz	hip_flexion_r	hip_adduction_r	hip_rotation_r	knee_angle_r	knee_angle_r_beta	ankle_angle_r	subtalar_angle_r	mtp_angle_r	hip_flexion_l	hip_adduction_l	hip_rotation_l	knee_angle_l	knee_angle_l_beta	ankle_angle_l	subtalar_angle_l	mtp_angle_l	lumbar_extension	lumbar_bending	lumbar_rotation	arm_flex_r	arm_add_r	arm_rot_r	elbow_flex_r	pro_sup_r	wrist_flex_r	wrist_dev_r	arm_flex_l	arm_add_l	arm_rot_l	elbow_flex_l	pro_sup_l	wrist_flex_l	wrist_dev_l
0.72	-0.5450394439498981	6.593547083016652	-87.89865109751574	0	0.9399999998679526	0	45.28662800402996	-10.09774654599831	0	60.02898698237972	1.047703469479341	-5.024155944531697	0	0	45.28662800402996	-10.09774654599831	0	60.02898698237972	1.047703469479341	-5.024155944531697	0	0	1.552582192396805	-1.352719100402353	-16.38763952144543	7.44903992603717	-2.202849773925277	15.26897074125235	0.03746087407109613	1.122885958908621	0	0	0	-12.73168790844344	0	88.89961258152427	1.122885958908621	0	0
0.73	-0.5653564095247621	7.166638033108747	-87.96941381596655	0	0.9399999998679526	0	45.28656044856327	-10.09766669877739	0	60.02898161257543	1.047703375758576	-5.024130246121985	0	0	45.28656044856327	-10.09766669877739	0	60.02898161257543	1.047703375758576	-5.024130246121985	0	0	3.569789618069456	-0.9090359002751136	-16.58542316906836	6.380089650676148	-2.778798652539692	15.51833616832283	0.03744675128589935	1.122701343952788	0	0	0	-12.73196295032327	0	88.89979346775483	1.122701343952788	0	0
0.74	-0.6560647390291958	8.2255719596945	-87.67541601489322	0	0.9399999998679526	0	45.28647632866521	-10.09756794820995	0	60.02897489293306	1.047703258478693	-5.024098510438925	0	0	45.28647632866521	-10.09756794820995	0	60.02897489293306	1.047703258478693	-5.024098510438925	0	0	6.312836893205985	-0.4118770926398196	-17.04065519067584	5.070943224773752	-3.407813492601389	15.64073474778851	0.03690190400677112	1.12247100686162	0	0	0	-12.73230667924487	0	88.90001915266716	1.12247100686162	0	0
0.75	-0.8001041941630599	9.548170504291788	-87.11557806592336	0	0.9399999998679526	0	45.28639660046729	-10.09747601263995	0	60.02896843517836	1.047703145769611	-5.024069068986972	0	0	45.28639660046729	-10.09747601263995	0	60.02896843517836	1.047703145769611	-5.024069068986972	0	0	9.325395869048482	0.04243563729394666	-17.76302111599363	3.758303380412932	-4.089668913436315	15.71966809559913	0.03665241312092128	1.122251505484613	0	0	0	-12.73263574429973	0	88.90023422074439	1.122251505484613	0	0
0.76	-0.9799139657386707	10.86274011342422	-86.54263286779646	0	0.9399999998679526	0	45.28630443605243	-10.09736709222845	0	60.02896112303015	1.047703018148549	-5.024034036296057	0	0	45.28630443605243	-10.09736709222845	0	60.02896112303015	1.047703018148549	-5.024034036296057	0	0	12.48094934320889	0.4800691194351172	-21.56470921469529	2.543718048259853	-4.613890246632351	18.90789964652132	0.03633967144036909	1.121999766236625	0	0	0	-12.73301059206351	0	88.90048087553463	1.121999766236625	0	0
0.77	-1.245191193094983	12.18033010912717	-85.63436403538979	0	0.9399999998679526	0	45.28620825303933	-10.09725395450826	0	60.02895346865282	1.047702884554462	-5.023997688129918	0	0	45.28620825303933	-10.09725395450826	0	60.02895346865282	1.047702884554462	-5.023997688129918	0	0	15.6247983514521	0.8435970446864038	-24.98651522012254	1.319867702773908	-5.270571893844284	21.38137449648339	0.03643013386744667	1.121736718130872	0	0	0	-12.73340268787338	0	88.90073861078186	1.121736718130872	0	0
0.78	-1.598563153172202	13.5535439948736	-84.66585021655952	0	0.9399999998679526	0	45.28611247548241	-10.0971417482295	0	60.02894582552399	1.047702751156699	-5.023961672857062	0	0	45.28611247548241	-10.0971417482295	0	60.02894582552399	1.047702751156699	-5.023961672857062	0	0	18.86554640872611	1.092559816938683	-28.45402173963687	0.01098060755301055	-6.025502423303184	23.86024645532475	0.03726851001555398	1.121474482346445	0	0	0	-12.73379394193159	0	88.90099555012145	1.121474482346445	0	0
0.79	-2.130368892652869	14.98355937964797	-83.38838814855245	0	0.9399999998679526	0	45.28600672900126	-10.09701820576	0	60.02893737073343	1.047702603592766	-5.023922044164514	0	0	45.28600672900126	-10.09701820576	0	60.02893737073343	1.047702603592766	-5.023922044164514	0	0	22.36371233746877	1.264482325707433	-31.98235094699079	-1.580865314711097	-6.94601888497391	26.03540423813826	0.03700751166818766	1.121184721134782	0	0	0	-12.73422655470523	0	88.9012794589556	1.121184721134782	0	0
0.8	-2.598262035250805	16.46642869386563	-82.45516834152583	0	0.9399999998679526	0	45.285869154662	-10.09685789068917	0	60.02892635193907	1.047702411278525	-5.023870650587814	0	0	45.285869154662	-10.09685789068917	0	60.02892635193907	1.047702411278525	-5.023870650587814	0	0	25.95567224733958	1.369029126954621	-33.72278387396753	-3.365590782446442	-7.930391912312437	26.7973500381083	0.03849945048096393	1.120807466983353	0	0	0	-12.73479014891808	0	88.90164909362043	1.120807466983353	0	0
0.8100000000000001	-3.012221976940181	17.76257335061218	-81.77159159202446	0	0.9399999998679526	0	45.28575753201277	-10.09672880884658	0	60.02891736454795	1.047702254418959	-5.023829341304104	0	0	45.28575753201277	-10.09672880884658	0	60.02891736454795	1.047702254418959	-5.023829341304104	0	0	29.25186612955394	1.431323903788417	-33.84779186724787	-5.248704406595738	-8.873028113344663	26.02094579331408	0.0415286021633674	1.120500720873696	0	0	0	-12.73524922353736	0	88.90194964432541	1.120500720873696	0	0
0.82	-3.448176256943765	18.99683230938374	-81.12207092498599	0	0.9399999998679526	0	45.2856633028841	-10.09662034997715	0	60.02890975431267	1.047702121595296	-5.023794670124961	0	0	45.2856633028841	-10.09662034997715	0	60.02890975431267	1.047702121595296	-5.023794670124961	0	0	32.54889167045907	1.457329377062706	-34.10696141335336	-7.246828033745487	-9.790200314788056	25.40775140604508	0.04459905007504046	1.120241443835397	0	0	0	-12.73563766252118	0	88.90220368470789	1.120241443835397	0	0
0.83	-3.478551987740191	20.29880633720614	-81.49479713136932	0	0.9399999998679526	0	45.28555588762724	-10.09649800192675	0	60.02890101095221	1.047701968994869	-5.023755642494273	0	0	45.28555588762724	-10.09649800192675	0	60.02890101095221	1.047701968994869	-5.023755642494273	0	0	35.96260575518043	1.611985857148942	-33.56455207735294	-9.392378628480108	-10.80980643282059	24.90252044441552	0.04873415066879315	1.119944962370887	0	0	0	-12.73608300193862	0	88.90249417811449	1.119944962370887	0	0
0.84	-3.388813073412849	21.56834960082476	-81.92412894835577	0	0.9399999998679526	0	45.28547283869243	-10.09640631696596	0	60.02889409309366	1.04770184825546	-5.023726580411372	0	0	45.28547283869243	-10.09640631696596	0	60.02889409309366	1.04770184825546	-5.023726580411372	0	0	39.32274031047475	1.632725193889392	-33.07814956994854	-11.55801124780987	-11.82478447517457	24.58408003424163	0.0535517739349295	1.119713627441596	0	0	0	-12.73643313695609	0	88.90272084080274	1.119713627441596	0	0
0.85	-3.471088964546075	22.81232622877185	-81.78706065607609	0	0.9399999998679526	0	45.2853783560105	-10.09630319368434	0	60.02888615849103	1.047701709770519	-5.023693969744698	0	0	45.2853783560105	-10.09630319368434	0	60.02888615849103	1.047701709770519	-5.023693969744698	0	0	42.59441387089703	1.392790819576795	-33.19399941223038	-13.51361381642029	-12.76429970264115	24.41948812171345	0.05685327797674978	1.119449578045533	0	0	0	-12.73683386889857	0	88.90297955724766	1.119449578045533	0	0
0.86	-3.546169841555856	24.0497559750762	-81.67097590552746	0	0.9399999998679526	0	45.28528527386349	-10.0962001670185	0	60.02887842697888	1.047701574830176	-5.023661305811574	0	0	45.28528527386349	-10.0962001670185	0	60.02887842697888	1.047701574830176	-5.023661305811574	0	0	45.55763619045194	1.053819922985805	-33.30228379268991	-15.40051822357324	-13.50526528211935	24.24933325860487	0.06143561677046183	1.119190551023683	0	0	0	-12.73722558264835	0	88.9032333527297	1.119190551023683	0	0
0.87	-3.462861632355782	25.19224153274482	-81.58281427317264	0	0.9399999998679526	0	45.28514219570447	-10.09603622631042	0	60.0288668605658	1.047701372958185	-5.023608987723796	0	0	45.28514219570447	-10.09603622631042	0	60.0288668605658	1.047701372958185	-5.023608987723796	0	0	48.31738004043883	0.6588895943379829	-33.41995997993946	-17.09798598602713	-14.22520660290112	24.05626177691651	0.06524091723549517	1.118796571268409	0	0	0	-12.73781613748141	0	88.90361937522736	1.118796571268409	0	0
0.88	-3.396848998552851	26.28602275017072	-81.58032627152633	0	0.9399999998679526	0	45.2850500376501	-10.09593313683171	0	60.02885927664299	1.047701240593762	-5.023576250022517	0	0	45.2850500376501	-10.09593313683171	0	60.02885927664299	1.047701240593762	-5.023576250022517	0	0	51.22077728653221	0.3303607655698279	-33.40594559313016	-19.05336923711996	-14.98708787243233	23.71292175242868	0.06098013012365869	1.118541006681097	0	0	0	-12.73820147740986	0	88.90386977818592	1.118541006681097	0	0
0.89	-3.345065382732728	27.39158605421165	-81.57338344672601	0	0.9399999998679526	0	45.28495702229147	-10.0958312703217	0	60.02885150464503	1.047701104946808	-5.023544042387865	0	0	45.28495702229147	-10.0958312703217	0	60.02885150464503	1.047701104946808	-5.023544042387865	0	0	54.33227009031044	-0.1375578702392309	-33.42649442825708	-21.2358909866138	-15.75802160963267	23.46142240882162	0.06127784608412442	1.118281488123448	0	0	0	-12.73859475086911	0	88.9041240552919	1.118281488123448	0	0
